# MagicaVoxel @ Ephtracy

# group
o 

# material
mtllib lil_fox.mtl
usemtl palette

# normals
vn -1 0 0
vn 1 0 0
vn 0 0 1
vn 0 0 -1
vn 0 -1 0
vn 0 1 0

# texcoords
vt 0.970703 0.5
vt 0.974609 0.5
vt 0.978516 0.5

# verts
v 0 2 -0.2
v 0 2 -0.4
v 0 2 -0.9
v 0 2 -1.1
v 0 2.1 -0.2
v 0 2.1 -0.4
v 0 2.1 -0.9
v 0 2.1 -1.1
v 0 2.2 -0.3
v 0 2.2 -1.1
v 0 2.6 -0.2
v 0 2.6 -0.3
v 0 2.9 -0.3
v 0 2.9 -1.1
v 0 3.1 -0.2
v 0 3.1 -0.3
v 0.1 2.9 -0.3
v 0.1 2.9 -0.4
v 0.1 3 -0.3
v 0.1 3 -0.4
v 0.1 3.1 -0.2
v 0.1 3.1 -0.3
v 0.1 3.2 -0.2
v 0.1 3.2 -0.3
v 0.2 2.9 -0.4
v 0.2 2.9 -0.5
v 0.2 3 -0.3
v 0.2 3 -0.4
v 0.2 3 -0.5
v 0.2 3.1 -0.3
v 0.2 3.1 -0.4
v 0.2 3.2 -0.2
v 0.2 3.2 -0.3
v 0.2 3.3 -0.2
v 0.2 3.3 -0.3
v 0.3 2.4 -0.1
v 0.3 2.4 -0.2
v 0.3 2.5 -0.2
v 0.3 2.6 -0.1
v 0.3 2.6 -0.2
v 0.4 2.5 0
v 0.4 2.5 -0.1
v 0.4 2.5 -1.1
v 0.4 2.5 -1.2
v 0.4 2.6 0
v 0.4 2.6 -0.1
v 0.4 2.6 -1.2
v 0.4 2.6 -1.3
v 0.4 2.8 -1.1
v 0.4 2.8 -1.3
v 0.5 2.8 -1.1
v 0.5 2.8 -1.2
v 0.5 2.9 -1.1
v 0.5 3.1 -1.1
v 0.5 3.1 -1.2
v 0.6 2.9 -0.2
v 0.6 2.9 -0.3
v 0.6 2.9 -0.5
v 0.6 3 -0.2
v 0.6 3 -0.3
v 0.6 3 -0.4
v 0.6 3 -0.5
v 0.6 3.1 -0.3
v 0.6 3.1 -0.4
v 0.6 3.3 -0.2
v 0.6 3.3 -0.3
v 0.7 2 -0.2
v 0.7 2 -0.4
v 0.7 2 -0.9
v 0.7 2 -1.1
v 0.7 2.1 -0.2
v 0.7 2.1 -0.4
v 0.7 2.1 -0.9
v 0.7 2.1 -1.1
v 0.2 2 -0.2
v 0.2 2 -0.4
v 0.2 2 -0.9
v 0.2 2 -1.1
v 0.2 2.1 -0.2
v 0.2 2.1 -0.4
v 0.2 2.1 -0.9
v 0.2 2.1 -1.1
v 0.3 2.9 -0.2
v 0.3 2.9 -0.3
v 0.3 2.9 -0.5
v 0.3 3 -0.2
v 0.3 3 -0.3
v 0.3 3 -0.4
v 0.3 3 -0.5
v 0.3 3.1 -0.3
v 0.3 3.1 -0.4
v 0.3 3.3 -0.2
v 0.3 3.3 -0.3
v 0.5 2.5 0
v 0.5 2.5 -0.1
v 0.5 2.5 -1.1
v 0.5 2.5 -1.2
v 0.5 2.6 0
v 0.5 2.6 -0.1
v 0.5 2.6 -1.2
v 0.5 2.6 -1.3
v 0.5 2.7 -1.1
v 0.5 2.7 -1.2
v 0.5 2.8 -1.2
v 0.5 2.8 -1.3
v 0.6 2.4 -0.1
v 0.6 2.4 -0.2
v 0.6 2.5 -0.2
v 0.6 2.6 -0.1
v 0.6 2.6 -0.2
v 0.6 2.7 -1.1
v 0.6 2.7 -1.2
v 0.6 2.9 -1.1
v 0.6 2.9 -1.2
v 0.6 3 -1.1
v 0.6 3 -1.2
v 0.6 3.1 -1.1
v 0.6 3.1 -1.2
v 0.7 2.9 -0.4
v 0.7 2.9 -0.5
v 0.7 2.9 -1.1
v 0.7 2.9 -1.2
v 0.7 3 -0.3
v 0.7 3 -0.4
v 0.7 3 -0.5
v 0.7 3 -1.1
v 0.7 3 -1.2
v 0.7 3.1 -0.3
v 0.7 3.1 -0.4
v 0.7 3.2 -0.2
v 0.7 3.2 -0.3
v 0.7 3.3 -0.2
v 0.7 3.3 -0.3
v 0.8 2.9 -0.3
v 0.8 2.9 -0.4
v 0.8 3 -0.3
v 0.8 3 -0.4
v 0.8 3.1 -0.2
v 0.8 3.1 -0.3
v 0.8 3.2 -0.2
v 0.8 3.2 -0.3
v 0.9 2 -0.2
v 0.9 2 -0.4
v 0.9 2 -0.9
v 0.9 2 -1.1
v 0.9 2.1 -0.2
v 0.9 2.1 -0.4
v 0.9 2.1 -0.9
v 0.9 2.1 -1.1
v 0.9 2.2 -0.3
v 0.9 2.2 -1.1
v 0.9 2.6 -0.2
v 0.9 2.6 -0.3
v 0.9 2.9 -0.3
v 0.9 2.9 -1.1
v 0.9 3.1 -0.2
v 0.9 3.1 -0.3
v 0.4 2.5 0
v 0.4 2.6 0
v 0.5 2.5 0
v 0.5 2.6 0
v 0.3 2.4 -0.1
v 0.3 2.6 -0.1
v 0.4 2.5 -0.1
v 0.4 2.6 -0.1
v 0.5 2.5 -0.1
v 0.5 2.6 -0.1
v 0.6 2.4 -0.1
v 0.6 2.6 -0.1
v 0 2 -0.2
v 0 2.1 -0.2
v 0 2.6 -0.2
v 0 3.1 -0.2
v 0.1 3.1 -0.2
v 0.1 3.2 -0.2
v 0.2 2 -0.2
v 0.2 2.1 -0.2
v 0.2 2.5 -0.2
v 0.2 2.6 -0.2
v 0.2 2.7 -0.2
v 0.2 2.9 -0.2
v 0.2 3 -0.2
v 0.2 3.2 -0.2
v 0.2 3.3 -0.2
v 0.3 2.4 -0.2
v 0.3 2.5 -0.2
v 0.3 2.6 -0.2
v 0.3 2.7 -0.2
v 0.3 2.9 -0.2
v 0.3 3 -0.2
v 0.3 3.3 -0.2
v 0.6 2.4 -0.2
v 0.6 2.5 -0.2
v 0.6 2.6 -0.2
v 0.6 2.7 -0.2
v 0.6 2.9 -0.2
v 0.6 3 -0.2
v 0.6 3.3 -0.2
v 0.7 2 -0.2
v 0.7 2.1 -0.2
v 0.7 2.5 -0.2
v 0.7 2.6 -0.2
v 0.7 2.7 -0.2
v 0.7 2.9 -0.2
v 0.7 3 -0.2
v 0.7 3.2 -0.2
v 0.7 3.3 -0.2
v 0.8 3.1 -0.2
v 0.8 3.2 -0.2
v 0.9 2 -0.2
v 0.9 2.1 -0.2
v 0.9 2.6 -0.2
v 0.9 3.1 -0.2
v 0 2 -0.9
v 0 2.1 -0.9
v 0.2 2 -0.9
v 0.2 2.1 -0.9
v 0.7 2 -0.9
v 0.7 2.1 -0.9
v 0.9 2 -0.9
v 0.9 2.1 -0.9
v 0.5 2.9 -1.1
v 0.5 3.1 -1.1
v 0.6 3 -1.1
v 0.6 3.1 -1.1
v 0.7 2.9 -1.1
v 0.7 3 -1.1
v 0 2.9 -0.3
v 0 3.1 -0.3
v 0.1 2.9 -0.3
v 0.1 3 -0.3
v 0.1 3.1 -0.3
v 0.1 3.2 -0.3
v 0.2 3 -0.3
v 0.2 3.1 -0.3
v 0.2 3.2 -0.3
v 0.2 3.3 -0.3
v 0.3 3.1 -0.3
v 0.3 3.3 -0.3
v 0.6 3.1 -0.3
v 0.6 3.3 -0.3
v 0.7 3 -0.3
v 0.7 3.1 -0.3
v 0.7 3.2 -0.3
v 0.7 3.3 -0.3
v 0.8 2.9 -0.3
v 0.8 3 -0.3
v 0.8 3.1 -0.3
v 0.8 3.2 -0.3
v 0.9 2.9 -0.3
v 0.9 3.1 -0.3
v 0 2 -0.4
v 0 2.1 -0.4
v 0.1 2.9 -0.4
v 0.1 3 -0.4
v 0.2 2 -0.4
v 0.2 2.1 -0.4
v 0.2 2.9 -0.4
v 0.2 3 -0.4
v 0.2 3.1 -0.4
v 0.3 3 -0.4
v 0.3 3.1 -0.4
v 0.6 3 -0.4
v 0.6 3.1 -0.4
v 0.7 2 -0.4
v 0.7 2.1 -0.4
v 0.7 2.9 -0.4
v 0.7 3 -0.4
v 0.7 3.1 -0.4
v 0.8 2.9 -0.4
v 0.8 3 -0.4
v 0.9 2 -0.4
v 0.9 2.1 -0.4
v 0.2 2.9 -0.5
v 0.2 3 -0.5
v 0.3 2.9 -0.5
v 0.3 3 -0.5
v 0.6 2.9 -0.5
v 0.6 3 -0.5
v 0.7 2.9 -0.5
v 0.7 3 -0.5
v 0 2 -1.1
v 0 2.1 -1.1
v 0 2.2 -1.1
v 0 2.9 -1.1
v 0.2 2 -1.1
v 0.2 2.1 -1.1
v 0.4 2.5 -1.1
v 0.4 2.8 -1.1
v 0.5 2.5 -1.1
v 0.5 2.7 -1.1
v 0.5 2.8 -1.1
v 0.5 2.9 -1.1
v 0.6 2.7 -1.1
v 0.6 2.9 -1.1
v 0.7 2 -1.1
v 0.7 2.1 -1.1
v 0.7 2.9 -1.1
v 0.9 2 -1.1
v 0.9 2.1 -1.1
v 0.9 2.2 -1.1
v 0.9 2.9 -1.1
v 0.4 2.5 -1.2
v 0.4 2.6 -1.2
v 0.5 2.5 -1.2
v 0.5 2.6 -1.2
v 0.5 2.7 -1.2
v 0.5 2.8 -1.2
v 0.5 3.1 -1.2
v 0.6 2.7 -1.2
v 0.6 2.9 -1.2
v 0.6 3 -1.2
v 0.6 3.1 -1.2
v 0.7 2.9 -1.2
v 0.7 3 -1.2
v 0.4 2.6 -1.3
v 0.4 2.8 -1.3
v 0.5 2.6 -1.3
v 0.5 2.8 -1.3
v 0 2 -0.2
v 0.2 2 -0.2
v 0.7 2 -0.2
v 0.9 2 -0.2
v 0 2 -0.4
v 0.2 2 -0.4
v 0.7 2 -0.4
v 0.9 2 -0.4
v 0 2 -0.9
v 0.2 2 -0.9
v 0.7 2 -0.9
v 0.9 2 -0.9
v 0 2 -1.1
v 0.2 2 -1.1
v 0.7 2 -1.1
v 0.9 2 -1.1
v 0.2 2.1 -0.2
v 0.7 2.1 -0.2
v 0 2.1 -0.4
v 0.2 2.1 -0.4
v 0.7 2.1 -0.4
v 0.9 2.1 -0.4
v 0 2.1 -0.9
v 0.2 2.1 -0.9
v 0.7 2.1 -0.9
v 0.9 2.1 -0.9
v 0.2 2.1 -1.1
v 0.7 2.1 -1.1
v 0.3 2.4 -0.1
v 0.6 2.4 -0.1
v 0.3 2.4 -0.2
v 0.6 2.4 -0.2
v 0.4 2.5 0
v 0.5 2.5 0
v 0.4 2.5 -0.1
v 0.5 2.5 -0.1
v 0.4 2.5 -1.1
v 0.5 2.5 -1.1
v 0.4 2.5 -1.2
v 0.5 2.5 -1.2
v 0.4 2.6 -1.2
v 0.5 2.6 -1.2
v 0.4 2.6 -1.3
v 0.5 2.6 -1.3
v 0.5 2.7 -1.1
v 0.6 2.7 -1.1
v 0.5 2.7 -1.2
v 0.6 2.7 -1.2
v 0.6 2.9 -1.1
v 0.7 2.9 -1.1
v 0.6 2.9 -1.2
v 0.7 2.9 -1.2
v 0.4 2.6 0
v 0.5 2.6 0
v 0.3 2.6 -0.1
v 0.4 2.6 -0.1
v 0.5 2.6 -0.1
v 0.6 2.6 -0.1
v 0.3 2.6 -0.2
v 0.6 2.6 -0.2
v 0.4 2.8 -1.1
v 0.5 2.8 -1.1
v 0.5 2.8 -1.2
v 0.4 2.8 -1.3
v 0.5 2.8 -1.3
v 0.3 2.9 -0.2
v 0.6 2.9 -0.2
v 0 2.9 -0.3
v 0.1 2.9 -0.3
v 0.3 2.9 -0.3
v 0.6 2.9 -0.3
v 0.8 2.9 -0.3
v 0.9 2.9 -0.3
v 0.1 2.9 -0.4
v 0.2 2.9 -0.4
v 0.7 2.9 -0.4
v 0.8 2.9 -0.4
v 0.2 2.9 -0.5
v 0.3 2.9 -0.5
v 0.6 2.9 -0.5
v 0.7 2.9 -0.5
v 0 2.9 -1.1
v 0.5 2.9 -1.1
v 0.7 2.9 -1.1
v 0.9 2.9 -1.1
v 0.1 3 -0.3
v 0.2 3 -0.3
v 0.7 3 -0.3
v 0.8 3 -0.3
v 0.1 3 -0.4
v 0.2 3 -0.4
v 0.3 3 -0.4
v 0.6 3 -0.4
v 0.7 3 -0.4
v 0.8 3 -0.4
v 0.2 3 -0.5
v 0.3 3 -0.5
v 0.6 3 -0.5
v 0.7 3 -0.5
v 0.6 3 -1.1
v 0.7 3 -1.1
v 0.6 3 -1.2
v 0.7 3 -1.2
v 0 3.1 -0.2
v 0.1 3.1 -0.2
v 0.8 3.1 -0.2
v 0.9 3.1 -0.2
v 0 3.1 -0.3
v 0.1 3.1 -0.3
v 0.2 3.1 -0.3
v 0.3 3.1 -0.3
v 0.6 3.1 -0.3
v 0.7 3.1 -0.3
v 0.8 3.1 -0.3
v 0.9 3.1 -0.3
v 0.2 3.1 -0.4
v 0.3 3.1 -0.4
v 0.6 3.1 -0.4
v 0.7 3.1 -0.4
v 0.5 3.1 -1.1
v 0.6 3.1 -1.1
v 0.5 3.1 -1.2
v 0.6 3.1 -1.2
v 0.1 3.2 -0.2
v 0.2 3.2 -0.2
v 0.7 3.2 -0.2
v 0.8 3.2 -0.2
v 0.1 3.2 -0.3
v 0.2 3.2 -0.3
v 0.7 3.2 -0.3
v 0.8 3.2 -0.3
v 0.2 3.3 -0.2
v 0.3 3.3 -0.2
v 0.6 3.3 -0.2
v 0.7 3.3 -0.2
v 0.2 3.3 -0.3
v 0.3 3.3 -0.3
v 0.6 3.3 -0.3
v 0.7 3.3 -0.3

# faces
f 5/3/1 2/3/1 1/3/1
f 6/3/1 2/3/1 5/3/1
f 7/3/1 4/3/1 3/3/1
f 8/3/1 4/3/1 7/3/1
f 9/2/1 6/2/1 5/2/1
f 9/2/1 7/2/1 6/2/1
f 9/2/1 8/2/1 7/2/1
f 10/2/1 8/2/1 9/2/1
f 11/2/1 9/2/1 5/2/1
f 12/1/1 10/1/1 9/1/1
f 12/2/1 9/2/1 11/2/1
f 13/1/1 12/1/1 11/1/1
f 13/1/1 10/1/1 12/1/1
f 14/1/1 10/1/1 13/1/1
f 15/1/1 13/1/1 11/1/1
f 16/1/1 13/1/1 15/1/1
f 19/1/1 18/1/1 17/1/1
f 20/1/1 18/1/1 19/1/1
f 23/1/1 22/1/1 21/1/1
f 24/1/1 22/1/1 23/1/1
f 28/1/1 26/1/1 25/1/1
f 29/1/1 26/1/1 28/1/1
f 30/1/1 28/1/1 27/1/1
f 31/1/1 28/1/1 30/1/1
f 34/1/1 33/1/1 32/1/1
f 35/1/1 33/1/1 34/1/1
f 38/1/1 37/1/1 36/1/1
f 39/1/1 38/1/1 36/1/1
f 40/1/1 38/1/1 39/1/1
f 45/3/1 42/3/1 41/3/1
f 46/3/1 42/3/1 45/3/1
f 47/3/1 44/3/1 43/3/1
f 49/3/1 48/3/1 47/3/1
f 49/3/1 47/3/1 43/3/1
f 50/3/1 48/3/1 49/3/1
f 53/3/1 52/3/1 51/3/1
f 54/3/1 52/3/1 53/3/1
f 55/3/1 52/3/1 54/3/1
f 59/2/1 57/2/1 56/2/1
f 60/1/1 58/1/1 57/1/1
f 60/2/1 57/2/1 59/2/1
f 61/1/1 58/1/1 60/1/1
f 62/1/1 58/1/1 61/1/1
f 63/1/1 60/1/1 59/1/1
f 63/1/1 61/1/1 60/1/1
f 64/1/1 61/1/1 63/1/1
f 65/1/1 63/1/1 59/1/1
f 66/1/1 63/1/1 65/1/1
f 71/3/1 68/3/1 67/3/1
f 72/3/1 68/3/1 71/3/1
f 73/3/1 70/3/1 69/3/1
f 74/3/1 70/3/1 73/3/1
f 75/3/2 76/3/2 79/3/2
f 79/3/2 76/3/2 80/3/2
f 77/3/2 78/3/2 81/3/2
f 81/3/2 78/3/2 82/3/2
f 83/2/2 84/2/2 86/2/2
f 84/1/2 85/1/2 87/1/2
f 86/2/2 84/2/2 87/2/2
f 87/1/2 85/1/2 88/1/2
f 88/1/2 85/1/2 89/1/2
f 86/1/2 87/1/2 90/1/2
f 87/1/2 88/1/2 90/1/2
f 90/1/2 88/1/2 91/1/2
f 86/1/2 90/1/2 92/1/2
f 92/1/2 90/1/2 93/1/2
f 94/3/2 95/3/2 98/3/2
f 98/3/2 95/3/2 99/3/2
f 96/3/2 97/3/2 100/3/2
f 100/3/2 101/3/2 102/3/2
f 96/3/2 100/3/2 102/3/2
f 102/3/2 101/3/2 103/3/2
f 103/3/2 101/3/2 104/3/2
f 104/3/2 101/3/2 105/3/2
f 106/1/2 107/1/2 108/1/2
f 106/1/2 108/1/2 109/1/2
f 109/1/2 108/1/2 110/1/2
f 111/3/2 112/3/2 113/3/2
f 113/3/2 112/3/2 114/3/2
f 115/3/2 116/3/2 117/3/2
f 117/3/2 116/3/2 118/3/2
f 119/1/2 120/1/2 124/1/2
f 124/1/2 120/1/2 125/1/2
f 121/3/2 122/3/2 126/3/2
f 126/3/2 122/3/2 127/3/2
f 123/1/2 124/1/2 128/1/2
f 128/1/2 124/1/2 129/1/2
f 130/1/2 131/1/2 132/1/2
f 132/1/2 131/1/2 133/1/2
f 134/1/2 135/1/2 136/1/2
f 136/1/2 135/1/2 137/1/2
f 138/1/2 139/1/2 140/1/2
f 140/1/2 139/1/2 141/1/2
f 142/3/2 143/3/2 146/3/2
f 146/3/2 143/3/2 147/3/2
f 144/3/2 145/3/2 148/3/2
f 148/3/2 145/3/2 149/3/2
f 146/2/2 147/2/2 150/2/2
f 147/2/2 148/2/2 150/2/2
f 148/2/2 149/2/2 150/2/2
f 150/2/2 149/2/2 151/2/2
f 146/2/2 150/2/2 152/2/2
f 150/1/2 151/1/2 153/1/2
f 152/2/2 150/2/2 153/2/2
f 152/1/2 153/1/2 154/1/2
f 153/1/2 151/1/2 154/1/2
f 154/1/2 151/1/2 155/1/2
f 152/1/2 154/1/2 156/1/2
f 156/1/2 154/1/2 157/1/2
f 160/3/3 159/3/3 158/3/3
f 161/3/3 159/3/3 160/3/3
f 164/1/3 163/1/3 162/1/3
f 165/1/3 163/1/3 164/1/3
f 166/1/3 164/1/3 162/1/3
f 168/1/3 166/1/3 162/1/3
f 168/1/3 167/1/3 166/1/3
f 169/1/3 167/1/3 168/1/3
f 174/1/3 173/1/3 172/1/3
f 176/3/3 171/3/3 170/3/3
f 177/2/3 172/2/3 171/2/3
f 177/3/3 171/3/3 176/3/3
f 178/2/3 172/2/3 177/2/3
f 179/1/3 175/1/3 174/1/3
f 179/2/3 172/2/3 178/2/3
f 179/1/3 174/1/3 172/1/3
f 180/1/3 175/1/3 179/1/3
f 181/1/3 175/1/3 180/1/3
f 182/1/3 175/1/3 181/1/3
f 183/1/3 175/1/3 182/1/3
f 185/2/3 178/2/3 177/2/3
f 186/3/3 179/3/3 178/3/3
f 186/2/3 178/2/3 185/2/3
f 186/3/3 180/3/3 179/3/3
f 187/3/3 180/3/3 186/3/3
f 188/1/3 181/1/3 180/1/3
f 188/3/3 180/3/3 187/3/3
f 189/2/3 182/2/3 181/2/3
f 189/1/3 181/1/3 188/1/3
f 190/1/3 184/1/3 183/1/3
f 190/2/3 182/2/3 189/2/3
f 190/1/3 183/1/3 182/1/3
f 191/1/3 184/1/3 190/1/3
f 192/2/3 185/2/3 177/2/3
f 194/1/3 189/1/3 188/1/3
f 194/1/3 188/1/3 187/1/3
f 195/1/3 189/1/3 194/1/3
f 196/1/3 189/1/3 195/1/3
f 200/2/3 193/2/3 192/2/3
f 200/2/3 192/2/3 177/2/3
f 201/3/3 194/3/3 193/3/3
f 201/3/3 195/3/3 194/3/3
f 201/2/3 193/2/3 200/2/3
f 202/3/3 195/3/3 201/3/3
f 203/1/3 196/1/3 195/1/3
f 203/3/3 195/3/3 202/3/3
f 204/2/3 197/2/3 196/2/3
f 204/1/3 196/1/3 203/1/3
f 205/1/3 198/1/3 197/1/3
f 205/2/3 197/2/3 204/2/3
f 206/1/3 198/1/3 205/1/3
f 207/1/3 198/1/3 206/1/3
f 208/1/3 204/1/3 203/1/3
f 208/1/3 203/1/3 202/1/3
f 208/1/3 206/1/3 205/1/3
f 208/1/3 205/1/3 204/1/3
f 209/1/3 206/1/3 208/1/3
f 210/3/3 200/3/3 199/3/3
f 211/2/3 201/2/3 200/2/3
f 211/3/3 200/3/3 210/3/3
f 211/2/3 202/2/3 201/2/3
f 212/1/3 208/1/3 202/1/3
f 212/2/3 202/2/3 211/2/3
f 213/1/3 208/1/3 212/1/3
f 216/3/3 215/3/3 214/3/3
f 217/3/3 215/3/3 216/3/3
f 220/3/3 219/3/3 218/3/3
f 221/3/3 219/3/3 220/3/3
f 224/3/3 223/3/3 222/3/3
f 225/3/3 223/3/3 224/3/3
f 226/3/3 224/3/3 222/3/3
f 227/3/3 224/3/3 226/3/3
f 228/1/4 229/1/4 230/1/4
f 230/1/4 229/1/4 231/1/4
f 231/1/4 229/1/4 232/1/4
f 232/1/4 233/1/4 234/1/4
f 231/1/4 232/1/4 234/1/4
f 234/1/4 233/1/4 235/1/4
f 235/1/4 233/1/4 236/1/4
f 236/1/4 237/1/4 238/1/4
f 235/1/4 236/1/4 238/1/4
f 238/1/4 237/1/4 239/1/4
f 240/1/4 241/1/4 243/1/4
f 243/1/4 241/1/4 244/1/4
f 244/1/4 241/1/4 245/1/4
f 242/1/4 243/1/4 247/1/4
f 243/1/4 244/1/4 247/1/4
f 247/1/4 244/1/4 248/1/4
f 248/1/4 244/1/4 249/1/4
f 246/1/4 247/1/4 250/1/4
f 247/1/4 248/1/4 250/1/4
f 250/1/4 248/1/4 251/1/4
f 252/3/4 253/3/4 256/3/4
f 256/3/4 253/3/4 257/3/4
f 254/1/4 255/1/4 258/1/4
f 258/1/4 255/1/4 259/1/4
f 259/1/4 260/1/4 261/1/4
f 261/1/4 260/1/4 262/1/4
f 263/1/4 264/1/4 268/1/4
f 268/1/4 264/1/4 269/1/4
f 267/1/4 268/1/4 270/1/4
f 270/1/4 268/1/4 271/1/4
f 265/3/4 266/3/4 272/3/4
f 272/3/4 266/3/4 273/3/4
f 274/1/4 275/1/4 276/1/4
f 276/1/4 275/1/4 277/1/4
f 278/1/4 279/1/4 280/1/4
f 280/1/4 279/1/4 281/1/4
f 282/3/4 283/3/4 286/3/4
f 283/2/4 284/2/4 287/2/4
f 286/3/4 283/3/4 287/3/4
f 284/1/4 285/1/4 288/1/4
f 288/1/4 285/1/4 289/1/4
f 284/1/4 288/1/4 290/1/4
f 289/1/4 285/1/4 292/1/4
f 292/1/4 285/1/4 293/1/4
f 290/1/4 291/1/4 294/1/4
f 287/2/4 284/2/4 297/2/4
f 294/1/4 295/1/4 298/1/4
f 296/3/4 297/3/4 299/3/4
f 297/2/4 284/2/4 300/2/4
f 299/3/4 297/3/4 300/3/4
f 284/1/4 290/1/4 301/1/4
f 300/2/4 284/2/4 301/2/4
f 290/1/4 294/1/4 301/1/4
f 294/1/4 298/1/4 301/1/4
f 301/1/4 298/1/4 302/1/4
f 303/3/4 304/3/4 305/3/4
f 305/3/4 304/3/4 306/3/4
f 308/3/4 309/3/4 310/3/4
f 307/3/4 308/3/4 310/3/4
f 310/3/4 309/3/4 311/3/4
f 311/3/4 309/3/4 312/3/4
f 312/3/4 309/3/4 313/3/4
f 311/3/4 312/3/4 314/3/4
f 314/3/4 312/3/4 315/3/4
f 316/3/4 317/3/4 318/3/4
f 318/3/4 317/3/4 319/3/4
f 324/3/5 321/3/5 320/3/5
f 325/3/5 321/3/5 324/3/5
f 326/3/5 323/3/5 322/3/5
f 327/3/5 323/3/5 326/3/5
f 332/3/5 329/3/5 328/3/5
f 333/3/5 329/3/5 332/3/5
f 334/3/5 331/3/5 330/3/5
f 335/3/5 331/3/5 334/3/5
f 339/2/5 337/2/5 336/2/5
f 340/2/5 337/2/5 339/2/5
f 342/2/5 339/2/5 338/2/5
f 342/2/5 341/2/5 340/2/5
f 342/2/5 340/2/5 339/2/5
f 343/2/5 341/2/5 342/2/5
f 344/2/5 341/2/5 343/2/5
f 345/2/5 341/2/5 344/2/5
f 346/2/5 344/2/5 343/2/5
f 347/2/5 344/2/5 346/2/5
f 350/1/5 349/1/5 348/1/5
f 351/1/5 349/1/5 350/1/5
f 354/3/5 353/3/5 352/3/5
f 355/3/5 353/3/5 354/3/5
f 358/3/5 357/3/5 356/3/5
f 359/3/5 357/3/5 358/3/5
f 362/3/5 361/3/5 360/3/5
f 363/3/5 361/3/5 362/3/5
f 366/3/5 365/3/5 364/3/5
f 367/3/5 365/3/5 366/3/5
f 370/3/5 369/3/5 368/3/5
f 371/3/5 369/3/5 370/3/5
f 372/3/6 373/3/6 375/3/6
f 375/3/6 373/3/6 376/3/6
f 374/1/6 375/1/6 378/1/6
f 376/1/6 377/1/6 378/1/6
f 375/1/6 376/1/6 378/1/6
f 378/1/6 377/1/6 379/1/6
f 380/3/6 381/3/6 382/3/6
f 380/3/6 382/3/6 383/3/6
f 383/3/6 382/3/6 384/3/6
f 385/1/6 386/1/6 389/1/6
f 389/1/6 386/1/6 390/1/6
f 387/1/6 388/1/6 393/1/6
f 391/1/6 392/1/6 396/1/6
f 393/1/6 394/1/6 397/1/6
f 389/1/6 390/1/6 398/1/6
f 398/1/6 390/1/6 399/1/6
f 395/1/6 396/1/6 400/1/6
f 398/1/6 399/1/6 401/1/6
f 399/1/6 400/1/6 401/1/6
f 393/1/6 397/1/6 401/1/6
f 387/1/6 393/1/6 401/1/6
f 397/1/6 398/1/6 401/1/6
f 401/1/6 400/1/6 402/1/6
f 400/1/6 396/1/6 403/1/6
f 402/1/6 400/1/6 403/1/6
f 396/1/6 392/1/6 404/1/6
f 403/1/6 396/1/6 404/1/6
f 405/1/6 406/1/6 409/1/6
f 409/1/6 406/1/6 410/1/6
f 407/1/6 408/1/6 413/1/6
f 413/1/6 408/1/6 414/1/6
f 410/1/6 411/1/6 415/1/6
f 415/1/6 411/1/6 416/1/6
f 412/1/6 413/1/6 417/1/6
f 417/1/6 413/1/6 418/1/6
f 419/3/6 420/3/6 421/3/6
f 421/3/6 420/3/6 422/3/6
f 423/1/6 424/1/6 427/1/6
f 427/1/6 424/1/6 428/1/6
f 425/1/6 426/1/6 433/1/6
f 433/1/6 426/1/6 434/1/6
f 429/1/6 430/1/6 435/1/6
f 435/1/6 430/1/6 436/1/6
f 431/1/6 432/1/6 437/1/6
f 437/1/6 432/1/6 438/1/6
f 439/3/6 440/3/6 441/3/6
f 441/3/6 440/3/6 442/3/6
f 443/1/6 444/1/6 447/1/6
f 447/1/6 444/1/6 448/1/6
f 445/1/6 446/1/6 449/1/6
f 449/1/6 446/1/6 450/1/6
f 451/1/6 452/1/6 455/1/6
f 455/1/6 452/1/6 456/1/6
f 453/1/6 454/1/6 457/1/6
f 457/1/6 454/1/6 458/1/6
